# xmcd
#
# Track frame offsets:
#	150
#	28375
#	56527
#	73957
#	104052
#	133720
#	155160
#	178162
#	226045
#
# Disc length: 3290 seconds
#
# Revision: 1
# Processed by: cddbd v1.5PL3 Copyright (c) Steve Scherf et al.
# Submitted via: audiograbber 1.82.02
#
DISCID=870cd809
DTITLE=Dano and the Free Range Chickens - Dano and the Free Range Chickens
DYEAR=2002
DGENRE=
TTITLE0=Winged Warrior
TTITLE1=That Thang
TTITLE2=Shot Gun Sue
TTITLE3=Wish I Had a Friend Like Me
TTITLE4=Selective Memory
TTITLE5=Southbound
TTITLE6=Your the Kinda Lover
TTITLE7=Come Clean
TTITLE8=Corner Boogie
EXTD=
EXTT0=
EXTT1=
EXTT2=
EXTT3=
EXTT4=
EXTT5=
EXTT6=
EXTT7=
EXTT8=
PLAYORDER=
